# xmcd
#
# Track frame offsets:
#	150
#	18007
#	36797
#	58527
#	70167
#	103915
#	118710
#	138412
#	155710
#	172267
#	183645
#	205217
#	222670
#	235957
#	250255
#	266445
#	285332
#	302617
#
# Disc length: 4416 seconds
# Revision: 1
# Processed by: cddbd v1.5.2PL0 Copyright (c) Steve Scherf et al.
# Submitted via: dBpowerAMP V12.0
#
DISCID=0e113e12
DTITLE=Various Artist - The Greatest Blues Collection
DYEAR=1997
DGENRE=Blues
TTITLE0=Mertis Jun - Need your love so bad
TTITLE1=Bone - U2 - When loves comes to town
TTITLE2=Gary Moore - Still got the blues
TTITLE3=Muddy Waters - Rollin' and tumblin'
TTITLE4=Jimmy Page - Robert Plant - J.P.Jones - Since i've been loving you too long
TTITLE5=T. Ellison - Some kind of wonderful
TTITLE6=Gary Moore - Pretty woman
TTITLE7=Jordan Foster - I'd rather go blind
TTITLE8=Eddy Wilsons - I need all your lovin'
TTITLE9=Jones - 'Miss celie's blues
TTITLE10=Miles - Now that the music has gone
TTITLE11=Robert Johnson - Eric Clapton - Crossroads
TTITLE12=Peter Green - the supernatural
TTITLE13=Eddy Wilsons - How blue can you get
TTITLE14=Paul Rodgers - Walk in my shadow
TTITLE15=Jimy Hendrix - Red house
TTITLE16=Dolly Parton - I will always love you
TTITLE17=Robert Plant - Blunt - Woodroffe - Big log
EXTD=
EXTT0=
EXTT1=
EXTT2=
EXTT3=
EXTT4=
EXTT5=
EXTT6=
EXTT7=
EXTT8=
EXTT9=
EXTT10=
EXTT11=
EXTT12=
EXTT13=
EXTT14=
EXTT15=
EXTT16=
EXTT17=
PLAYORDER=
